<?xml version="1.0" encoding="UTF-8"?>
<svg id="Layer_1" data-name="Layer 1" xmlns="http://www.w3.org/2000/svg" viewBox="0 0 2448.51 518.97">
  <defs>
    <style>
      .cls-1 {
        stroke: #000;
        stroke-miterlimit: 10;
        stroke-width: 2px;
      }

      .cls-1, .cls-2 {
        fill: none;
      }

      .cls-3 {
        fill: #000;
      }

      .cls-3, .cls-2, .cls-4, .cls-5 {
        stroke-width: 0px;
      }

      .cls-4 {
        fill: #c02032;
      }

      .cls-5 {
        fill: #fff;
      }
    </style>
  </defs>
  <g>
    <path class="cls-4" d="M526.2,261.49c0-75.83,0-151.65,0-227.48,0-6.88.31-6.99,7.24-7.6,36.05-3.16,72.19-3.04,108.33-3.02,86.66.07,173.32-.43,259.98.17,75.25.52,139.35,51.29,157.47,123.8,3.31,13.25,5.01,27.25,5.06,40.91.42,100.49.21,200.98.31,301.47,0,4.34-.83,6.12-5.71,6.08-30.33-.23-60.66-.22-90.99,0-4.81.03-5.77-1.61-5.77-6.03.11-100.49.09-200.98.08-301.47,0-38-22.62-66.41-59.89-73.88-9.99-2-20.53-1.34-30.82-1.69-6.49-.22-13,.09-19.5-.08-3.49-.09-4.88,1.29-4.56,4.72.16,1.65.02,3.33.02,5,0,122.16,0,244.31,0,366.47q0,6.84-6.74,6.85c-29.83,0-59.66-.1-89.49.11-4.85.03-6.14-1.39-6.13-6.18.12-122.99.1-245.98.1-368.97q0-7.95-7.87-7.96c-34,0-67.99,0-101.99,0-6.86,0-6.87.02-6.87,6.84,0,122.99,0,245.98,0,368.96q0,7.18-7.4,7.19c-29.5,0-59-.11-88.49.11-4.99.04-6.49-1.19-6.48-6.36.17-75.99.12-151.99.12-227.98Z"/>
    <path class="cls-4" d="M247.89,507.05,248.14,12.31"/>
    <path class="cls-4" d="M1417.47,324.67c38.85,57.05,77.31,113.51,116.49,171.05h-6.5c-38.16,0-76.32-.06-114.49.09-4.14.02-6.61-1.26-8.93-4.71-50.85-75.6-101.83-151.11-152.77-226.65-.9-1.34-1.71-2.74-3.15-5.05,2.66,0,4.4,0,6.14,0,27.16,0,54.33.07,81.49-.02,34.82-.11,63.62-22.89,71.86-56.69,10.36-42.51-19.4-84.95-62.64-89-9.09-.85-18.28-.9-27.42-.93-32.66-.1-65.33-.04-97.99-.04q-8.01,0-8.01,7.85c0,122.32,0,244.64,0,366.96,0,8.99.84,8.17-7.93,8.18-29.5.02-58.99-.07-88.49.09-4.46.03-5.98-1.03-5.98-5.81.13-152.32.14-304.63-.03-456.95,0-5.16,2.28-6.31,6.35-6.54,18.27-1.03,36.54-2.8,54.83-2.91,60.82-.38,121.68-1.41,182.47.17,66.95,1.74,115.28,34.56,144.66,94.69,12.5,25.58,16.86,53.16,13.75,81.19-6.3,56.81-34.6,98.62-87.65,122.3-1.65.74-3.31,1.48-6.07,2.72Z"/>
    <path class="cls-4" d="M2051.29,261.54c0-76,.07-151.99-.15-227.98-.01-5.19,1.89-6.81,6.37-7.05,18.61-1.01,37.21-2.78,55.83-2.91,57.66-.39,115.33-.74,172.99-.01,74.65.94,138.89,51.32,156.87,124.59,3.41,13.9,4.99,28.58,5.05,42.91.42,99.33.22,198.65.22,297.98q0,6.64-6.44,6.65c-29.83,0-59.66-.12-89.49.12-5.05.04-6.44-1.29-6.44-6.4.15-100.33.12-200.65.11-300.98,0-43.05-32.76-75.7-75.99-75.73-36.33-.03-72.66,0-108.99,0q-7.56,0-7.57,7.83c0,121.99,0,243.98,0,365.98,0,1.67-.09,3.34.01,5,.18,2.87-.82,4.24-3.97,4.23-31.5-.07-63-.09-94.49.01-4.16.01-3.93-2.43-3.93-5.24.03-24.83.02-49.66.02-74.5,0-51.5,0-102.99,0-154.49Z"/>
    <path class="cls-1" d="M1773.52,404.66c-74.6,1.11-144.2-58.94-144.47-145.45-.26-82.21,66.46-144.54,144.48-144.4,81,.15,145.92,64.24,145.67,144.41-.26,83.99-67.7,146.3-145.68,145.44Z"/>
  </g>
  <path class="cls-3" d="M345.43,454.57c0,14.89-7.68,28.6-20.57,39.5-.33.28-.66.55-1,.83-17.95,14.68-45.49,24.07-76.36,24.07s-57.89-9.22-75.85-23.66c-.51-.4-1.02-.82-1.51-1.24-64.91-21.33-117.96-68.79-146.74-129.92-.01-.05-.03-.09-.06-.14-.93-1.99-1.84-4-2.73-6.02-.45-1.03-.89-2.07-1.33-3.11-.44-1.06-.88-2.12-1.31-3.19-.54-1.35-1.07-2.7-1.59-4.06-.78-2.02-1.53-4.06-2.26-6.11-.38-1.08-.75-2.16-1.12-3.24-.64-1.91-1.27-3.83-1.87-5.76-.3-.98-.6-1.95-.89-2.94-.45-1.52-.89-3.06-1.32-4.6-.39-1.41-.77-2.84-1.14-4.27-.5-1.96-.99-3.94-1.44-5.92-.47-2.02-.91-4.06-1.33-6.11-.3-1.5-.6-3-.88-4.5-.28-1.5-.54-3.01-.79-4.52-.17-1.02-.33-2.05-.49-3.07-.15-1.02-.31-2.05-.45-3.08-.2-1.43-.39-2.86-.57-4.3-.15-1.24-.29-2.49-.42-3.73-.93-8.73-1.41-17.6-1.41-26.58,0-18.15,1.95-35.85,5.66-52.89.26-1.19.53-2.38.81-3.56C26.36,118.48,89.78,50.7,170.99,24.2c-13.41,11.02-21.43,24.99-21.43,40.2,0,24.67,21.1,46.1,52.08,56.9-57.61,19.19-99.14,73.55-99.14,137.6s42.37,119.5,100.88,138.16c13.26-4.41,28.25-6.89,44.12-6.89s30.86,2.48,44.11,6.9c31.93,10.6,53.82,32.37,53.82,57.5Z"/>
  <path class="cls-2" d="M392.5,258.9c0,64.7-42.38,119.51-100.89,138.17-13.25-4.42-28.24-6.9-44.11-6.9s-30.86,2.48-44.12,6.89c-58.51-18.66-100.88-73.46-100.88-138.16s41.53-118.41,99.14-137.6c13.68,4.78,29.29,7.49,45.86,7.49s32.17-2.71,45.85-7.49c57.61,19.18,99.15,73.54,99.15,137.6Z"/>
  <path class="cls-2" d="M392.5,258.9c0,64.7-42.38,119.51-100.89,138.17-13.25-4.42-28.24-6.9-44.11-6.9s-30.86,2.48-44.12,6.89c-58.51-18.66-100.88-73.46-100.88-138.16s41.53-118.41,99.14-137.6c13.68,4.78,29.29,7.49,45.86,7.49s32.17-2.71,45.85-7.49c57.61,19.18,99.15,73.54,99.15,137.6Z"/>
  <path class="cls-4" d="M495,258.9c0,109.67-71.34,202.69-170.14,235.17,12.89-10.9,20.57-24.61,20.57-39.5,0-25.13-21.89-46.9-53.82-57.5,58.51-18.66,100.89-73.47,100.89-138.17s-41.54-118.42-99.15-137.6c-13.68,4.78-29.28,7.49-45.85,7.49s-32.18-2.71-45.86-7.49c-30.98-10.8-52.08-32.23-52.08-56.9,0-15.21,8.02-29.18,21.43-40.2.51-.42,1.03-.84,1.55-1.24C190.5,8.92,217.42,0,247.5,0s56.99,8.92,74.96,22.96c.72.55,1.42,1.12,2.11,1.69,72.98,24.03,131.93,80.9,157.17,154.13.2.57.39,1.14.58,1.72.22.63.43,1.27.63,1.9.24.75.49,1.51.72,2.26.23.73.46,1.47.68,2.2.22.71.43,1.43.64,2.14,6.51,22.18,10.01,45.62,10.01,69.9Z"/>
  <circle class="cls-5" cx="201.2" cy="46.66" r="16.1"/>
  <circle class="cls-5" cx="288.41" cy="471.71" r="16.1"/>
  <path class="cls-4" d="M1774.12,11.71c-136.66,0-247.44,110.78-247.44,247.43s110.78,247.43,247.44,247.43,247.45-110.78,247.45-247.43S1910.78,11.71,1774.12,11.71ZM1774.12,404.14c-80.08,0-145-64.92-145-145s64.92-145,145-145,145,64.92,145,145-64.92,145-145,145Z"/>
</svg>