<svg xmlns="http://www.w3.org/2000/svg" xmlns:xlink="http://www.w3.org/1999/xlink" viewBox="0 0 636.97 636.97"><defs><style>.cls-1{fill:#fff;}.cls-2{fill:#c02032;}.cls-3{fill:#231f20;}.cls-4{clip-path:url(#clip-path);}.cls-5{clip-path:url(#clip-path-2);}</style><clipPath id="clip-path" transform="translate(-181.51 -181.51)"><path class="cls-1" d="M624,526.46c-1.08-6-8.36-10.66-26.77-13.32s-32.81-2.22-58.53.88c-22.89,2.77-58.3,7.32-93.87,19.1-46.61,15.43-44.34,3-44.34,3,.15-3.54,6.71-7.09,32.31-.66,3.51,1.08-40.75-17-44.73,1.82-1.18,5.61.71,11.32.84,16.63.27,11.43,10.51,21,25,20.19,21.28-1.1,32.68-7.15,55.64-14.41,59-18.62,140.85-17.8,143-8.63,1.1,4.72-8.4,4.16-23.86,1l-7.84-2.56c.1,0,18,7.75,32.81,7.44,9.06-.19,8-10.37,8.86-16.52S625.14,532.94,624,526.46Z"/></clipPath><clipPath id="clip-path-2" transform="translate(-181.51 -181.51)"><path class="cls-1" d="M599.34,582.24c-.47-5.62-5.46-10.56-20.63-11-17.69-.56-50.51,6-78.16,13.88-16.64,4.72-30.29,9.56-45,14.64-38.51,13.29-32.64,6.2-32.64,6.2,2.18-3.23,9-4.69,22.33-3.67,3.07.07-27.44-8.65-33.14,3.89-2.16,4.75-.73,11.47,0,16.41,1,6.32-1.83,14,8.48,17.51s24.35-2.33,52.65-13.52c42.9-17,109.65-27.23,112.63-18.32.42,1.26-4.55,3.36-19.63-2.74,0,0,18.12,11.36,24.61,6.87,5.77-4,4.49-9.59,5.88-15.85C598.35,589.36,599.79,587.7,599.34,582.24Z"/></clipPath></defs><g id="ROUNDEL"><path d="M500,818.49A318.51,318.51,0,1,1,725.2,725.2,316.37,316.37,0,0,1,500,818.49Zm0-625a306.49,306.49,0,1,0,216.72,89.77A304.49,304.49,0,0,0,500,193.51Z" transform="translate(-181.51 -181.51)"/><path d="M724,505A221.1,221.1,0,1,1,282,495C284.75,372.88,386,276.18,508,279S726.82,383,724,505Z" transform="translate(-181.51 -181.51)"/><path class="cls-2" d="M506.85,199.7C341,195.91,203.48,327.3,199.7,493.15A300.31,300.31,0,0,0,493.15,800.3c105.1,2.4,198.81-49.48,254.33-130A298.89,298.89,0,0,0,800.3,506.85C804.09,341,672.7,203.48,506.85,199.7Zm198.72,305a205.62,205.62,0,1,1-411.14-9.38C297,381.78,391.16,291.84,504.69,294.43S708.16,391.16,705.57,504.69Z" transform="translate(-181.51 -181.51)"/><path class="cls-1" d="M500.09,806.38q-3.52,0-7.08-.08a306.43,306.43,0,1,1,7.08.08Zm-.27-600.76A294.41,294.41,0,0,0,257.47,666.89,294,294,0,0,0,493.29,794.3c2.26.06,4.54.08,6.8.08a294.38,294.38,0,0,0,6.62-588.68C504.41,205.64,502.11,205.62,499.82,205.62Zm.24,506c-1.62,0-3.25,0-4.89,0a211.62,211.62,0,1,1,216.4-206.74h0A211.57,211.57,0,0,1,500.06,711.62Zm-.12-411.24c-108,0-197,86.56-199.51,195.07a198.23,198.23,0,0,0,35.11,117.72,199.32,199.32,0,0,0,159.91,86.4,199.62,199.62,0,1,0,9.1-399.14C503,300.4,501.47,300.38,499.94,300.38Z" transform="translate(-181.51 -181.51)"/></g><g id="FSRI_TYPE"><path class="cls-1" d="M763.87,506.6l-36-.09,0-9.44,36,.1,0-7.65,8.18,0L772,514.35l-8.18,0Zm-38.12-37.08,43.87-5.28,1.11,9.37-43.88,5.27ZM724.18,538c2-12,9-13.49,17.82-12l28.87,4.76-1.5,9.25-28.23-4.66c-5.62-.93-8.58.12-9.22,4.09s1.75,6,7,6.85L767.58,551l-1.51,9.31-27.91-4.6C728.28,554.07,722.49,548.43,724.18,538Zm33.33-95-35,8.63-2.22-9.17,35-8.62-1.8-7.44,7.95-1.95,5.84,24.09-7.95,2ZM749,589.44l-34.2-11.36,2.94-9L752,580.48l2.38-7.27,7.78,2.59-7.72,23.56-7.77-2.59ZM261.89,615.75l9.33-4.5-4.12-8.68,7-3.39,4.12,8.69,16.18-7.8,4,8.51L258.6,627.79,250.16,610l7.32-3.52Zm24.16-35.66-41.81,14.44-3-8.93L283,571.16Zm-45-25.26a18.52,18.52,0,0,0,.44,1.87l11.42-2.31a11.65,11.65,0,0,0-.19-1.64c-.62-3.1-2.95-4.45-6.87-3.66C242.19,549.83,240.4,551.53,241.05,554.83Zm34.79-12.73-16,9.95.18.9,17.26-3.48,1.84,9.25-43.33,8.74c-.83-3.19-1.7-7.26-2.51-11.33-1.77-8.93.95-14.72,10.19-16.59,5.71-1.15,10.44.79,12.8,4.28,1.45-1.1,3-2.22,4.5-3.19l13-8.88ZM273,522.05l-44.14,2.08L227.91,504l8.11-.38.5,10.74,9.75-.46-.47-10,7.79-.36.46,10,10.33-.49-.5-10.81,8.18-.39Zm3.14-58.59a28,28,0,0,1-2.83,8.33L265,468.47a15.18,15.18,0,0,0,2.8-6c.62-3.44-.76-5-3.53-5.53-7.21-1.32-8.56,12.11-22,9.66-7.22-1.32-11.65-7.42-10.08-16.12a26.9,26.9,0,0,1,2.29-7.23l7.69,3.15a12.83,12.83,0,0,0-2.18,5.1c-.56,3.11,1.2,4.78,3.39,5.18,7,1.26,8.91-12.19,22-9.8C273.46,448.35,277.72,454.63,276.13,463.46Zm-17.28-47.94a95.29,95.29,0,0,1-9.4-1.68l0,.13c2.39,1.11,5.33,2.63,8.44,4.48L268.28,425l2.77-8Zm28.48,3.61-8.37-1L275.2,429l7.2,4.47L279.45,442,241,417.93l4.53-13.15,45.12,4.81Zm-20.12-42.76,9.14,4.89,4.48-8.5,6.88,3.68L283.23,385l15.83,8.48-4.39,8.33-39-20.9,9.19-17.42,7.17,3.85Zm42.44-1.31L273.83,349l11.72-16.37,6.58,4.79-6.24,8.72,7.91,5.75,5.82-8.13,6.31,4.59-5.82,8.13,8.39,6.1,6.28-8.77,6.63,4.82Zm3.44-61.18,26,25.17-6.5,6.8L306.6,320.69l-5.27,5.51-5.89-5.72,17.07-17.88,5.89,5.72ZM357,304l9,11.92-7.4,5.67-9-11.86-26.71-16.75,8.13-6.23,10.41,7.36c1.79,1.28,4.24,3.21,6.08,4.79l.05,0c-1.05-2.27-2.1-4.86-2.71-6.54l-4.6-12.64,7.71-5.91Zm38.1-47a17.42,17.42,0,0,0-1.71.81l4.58,10.8a10.67,10.67,0,0,0,1.56-.53c2.89-1.25,3.71-3.83,2.14-7.53C400.15,257,398.12,255.6,395.05,256.93Zm19.53,31.68L401.63,274.9l-.84.37,6.93,16.31-8.6,3.72-17.41-40.94c2.94-1.48,6.7-3.18,10.49-4.81,8.3-3.59,14.49-2.1,18.21,6.63,2.29,5.4,1.38,10.46-1.53,13.51,1.37,1.2,2.79,2.53,4,3.78l11.3,11Zm18.89-6.94-11.14-43.09,19.38-5.09,2.05,7.91-10.32,2.72,2.45,9.51,9.63-2.53,2,7.59-9.63,2.53,2.6,10.09,10.39-2.73,2.07,8Zm38.25-7.41a27.7,27.7,0,0,1-8.74-.33l.77-9a14.7,14.7,0,0,0,6.5,1c3.45-.4,4.57-2.19,4.25-5-.83-7.34-14-4.77-15.52-18.47-.83-7.34,3.69-13.37,12.41-14.37a26.45,26.45,0,0,1,7.53.13l-.78,8.32a12.79,12.79,0,0,0-5.47-.63c-3.13.36-4.2,2.54-3.95,4.77.8,7.08,14.15,5.08,15.66,18.46C485.3,267.32,480.56,273.24,471.72,274.26Zm25-2.61L498,227.13l20,.58-.23,8.18-10.67-.31-.28,9.83,9.95.29-.23,7.84-9.94-.28-.3,10.42L517,264l-.23,8.24Zm50.83-23.6c-.06-3.64,0-7,.24-9.62l-.13,0c-.74,2.55-1.78,5.71-3.13,9.08l-4.82,11.39,8.31,1.54ZM548.3,277l-.24-8.5-11.26-2.1-3.3,7.84-8.82-1.63,17.81-42,13.58,2.52,2.08,45.68Zm41-26.37a16.71,16.71,0,0,0-1.81-.59l-4,11a11.37,11.37,0,0,0,1.49.68c3,1.08,5.31-.23,6.67-4C593,254.18,592.46,251.74,589.33,250.6Zm-7.25,36.58-.15-18.93-.86-.32-6,16.69-8.8-3.22,15.07-41.86c3.14.93,7,2.29,10.92,3.71,8.49,3.1,12,8.45,8.79,17.38-2,5.52-6.09,8.58-10.28,8.81.18,1.82.32,3.76.38,5.54l.79,15.8Zm30.52,15.29c-10.57-5.82-10.08-15.25-3.67-27.06,6.78-12.5,16.21-18.2,26.15-12.73a21.62,21.62,0,0,1,6.17,5.12l-5.8,6.43a10.91,10.91,0,0,0-3.8-3.44c-4.54-2.5-9,.85-13.27,8.78-4.52,8.34-4.73,13.41-.37,15.81a12,12,0,0,0,5.55,1.47l-2.08,8.1A19.34,19.34,0,0,1,612.6,302.47Zm32.58,21.84,11.28-14.48-9-7.13-11.28,14.48-7.37-5.83,27.3-35,7.36,5.83-10.88,14,9,7.13,10.88-14,7.31,5.79-27.29,35ZM674,353.12l34.34-28,5.89,7.33-34.34,28Zm23.64,34,14.72-18.4a81.17,81.17,0,0,1,8.33-9.09l-.1-.17c-3.42,2.59-9.81,7-16.73,11.15l-11.8,7.11-4.26-7.19,37.93-22.86,6.38,10.76L719.68,374.1a75.88,75.88,0,0,1-8.25,9.11l.1.17c3.42-2.59,9.81-7,16.67-11.11l8.94-5.39,4.26,7.19-37.93,22.86ZM710.45,415a28.28,28.28,0,0,1-2-8.58l8.81-1.59a15.19,15.19,0,0,0,.75,6.58c1.28,3.25,3.28,3.88,5.9,2.84,6.82-2.72.94-14.85,13.67-19.92,6.82-2.71,13.77.13,17,8.35a26.93,26.93,0,0,1,1.83,7.36l-8.18,1.41a13,13,0,0,0-.81-5.49c-1.15-2.95-3.52-3.42-5.59-2.6-6.58,2.62-1.2,15.09-13.63,20C720.62,426.46,713.72,423.39,710.45,415Zm-2,179.63,39.6,19.76-8.89,18.09-7.27-3.63,4.73-9.64-8.74-4.36-4.42,9-7-3.48,4.42-9-9.27-4.63-4.76,9.7-7.34-3.66Z" transform="translate(-181.51 -181.51)"/></g><g id="TORCH___HOSE" data-name="TORCH_&amp;_HOSE"><path class="cls-1" d="M448.24,540.1s118,26.29,144,37.9l1.32,24.27s8.21,16.16-24.93,4c-55-20.19-125.69-34.58-150.18-38.67Z" transform="translate(-181.51 -181.51)"/><path d="M587.53,611.54c-4.48,0-10.89-1.53-19.18-4.57-55.58-20.41-127.16-34.81-150-38.63l-1.51-.25L448,539.28l.39.09c1.18.26,118.4,26.44,144.12,38l.42.18,1.34,24.58c.38.82,2,4.74-.31,7.35C592.73,610.83,590.57,611.54,587.53,611.54ZM420.06,567.12c24.42,4.18,94.29,18.42,148.81,38.44,17.4,6.39,22.5,4.55,24,2.88,1.87-2.1,0-5.8,0-5.83l-.08-.14-1.3-24c-25.65-11.21-135.64-35.92-143-37.58Z" transform="translate(-181.51 -181.51)"/><path class="cls-2" d="M632.86,367.33c-.43-.4-11.45-2.67-21,2.42-7.55,4-10.87,12.37-10.07,16.1s13.83,7,18.62,17.11c4.53,9.56,1,25.16,1,25.16-5-14.09-24.15-22.65-35.22-25.16s-25-.65-23.38,9.09l-4.69-.36c-36.12,9.79-110.53,1.88-114.63,2.84-18.89-29,6.86-102.06,87.3-77,41.86,13,50.51-7.73,50.51-7.73,10.82,26.42-20.06,36.38-20.06,36.38s13.25,2.42,33-7.52S632.21,366.46,632.86,367.33Z" transform="translate(-181.51 -181.51)"/><path class="cls-1" d="M621.44,429.12a1,1,0,0,1-.94-.67c-4.76-13.32-23.24-22-34.51-24.52-8.54-1.94-16.94-1-20.43,2.3a5.9,5.9,0,0,0-1.74,5.65,1,1,0,0,1-.53,1.06c-.25.12-.25.12-2.87-.08l-2.17-.16c-27.62,7.42-77.26,4.64-101.14,3.31-6.72-.38-12.52-.71-13.36-.51a1,1,0,0,1-1.07-.43c-10.09-15.49-7.22-41.86,6.52-60a58.5,58.5,0,0,1,31.19-21.12c14.76-4.13,31.82-3.24,50.72,2.66,21.2,6.6,33.49,4.27,40.07,1.15,7.05-3.34,9.21-8.27,9.23-8.32a1,1,0,0,1,.92-.61h0a1,1,0,0,1,.92.62c3.06,7.48,3.16,14.41.29,20.59-3.81,8.2-11.85,13.07-16.8,15.42,5.36-.08,15.37-1.27,28.07-7.66,19.28-9.7,37.87,6.33,39.84,9a1,1,0,0,1-1.33,1.45,30.24,30.24,0,0,0-20,2.45c-7.42,3.95-10.2,12-9.56,15,.23,1.08,2.61,2.55,5.12,4.11,4.4,2.73,10.43,6.46,13.43,12.78,4.62,9.76,1.22,25.16,1.07,25.81a1,1,0,0,1-.91.77Zm-44.17-28.18a42.52,42.52,0,0,1,9.17,1c9.36,2.13,27.71,9.49,34.59,22.72.74-5,1.62-14.74-1.5-21.31-2.74-5.79-8.48-9.35-12.68-11.94-3.25-2-5.6-3.48-6-5.39-.91-4.23,2.76-13,10.57-17.2,6.42-3.42,13.68-3.66,18.1-3.19-5.62-4.54-19.74-13.68-34.79-6.1-19.83,10-33.07,7.71-33.63,7.61a1,1,0,0,1-.13-1.94c.15,0,14.56-4.82,19.78-16.07,2.37-5.11,2.5-10.83.4-17-3.42,5-15.71,17.22-50.62,6.33-46.66-14.54-70,4.89-79.72,17.76-13.12,17.34-16,42.32-6.77,57.22,1.73-.09,5.72.12,13.2.54,23.8,1.33,73.32,4.1,100.61-3.27h0a19.76,19.76,0,0,1,2.68.15l1.15.09a7.73,7.73,0,0,1,2.46-6.18C567.09,402,572.06,400.94,577.27,400.94Zm55.1-32.74Zm-.18-.13Zm0,0h0Z" transform="translate(-181.51 -181.51)"/><path class="cls-1" d="M617.24,363.52s-11.94,2.08-16.72,11.9c-5.65,11.6-14.46,13.08-14.46,13.08s6-2.62,11.19-14.47C601.91,363.47,617.24,363.52,617.24,363.52Z" transform="translate(-181.51 -181.51)"/><path class="cls-1" d="M565.84,350s-12.08,12-49.37,9.85c-39-2.2-30.37,39-23.85,45.92-10.4.84-24.6,1.75-33.24,3.33-15.26-53.51,27.83-74.11,62.14-62.94C552.25,356.16,565.84,350,565.84,350Z" transform="translate(-181.51 -181.51)"/><path class="cls-1" d="M589.49,370.25s-10.82,17.86-28.18,20.5-14.87,14.79-16.12,19.88c-10.84-1.25-12.65-2.7-25.33-2.53-3.77,0-17.85-3-21.47-2.79,3-9.08,7.82-33.05,42.16-28.14S589.49,370.25,589.49,370.25Z" transform="translate(-181.51 -181.51)"/><path class="cls-1" d="M593.13,391.13s26.76,1.19,26.13,25.74a26.46,26.46,0,0,0-11.69-18.14C597.34,392,593.13,391.13,593.13,391.13Z" transform="translate(-181.51 -181.51)"/><path class="cls-1" d="M563.62,636.07s-81-36.57-137-36c0,0-16.16-2.12-10.81,24.29l12.34,8.35s60.37,6.61,123.22,30.28C551.37,663,559.52,637.94,563.62,636.07Z" transform="translate(-181.51 -181.51)"/><path d="M551.84,664l-.73-.27c-62-23.36-122.44-30.16-123-30.23l-.18,0-12.76-8.63-.06-.3c-2.09-10.35-1.2-17.7,2.65-21.83a11,11,0,0,1,8.94-3.36H428c55.5,0,135.17,35.68,136,36l1.51.68-1.51.68c-2.77,1.26-8.74,16.92-11.85,26.5ZM428.42,632c3.75.43,62.24,7.45,122.48,30,1.42-4.31,7.25-21.43,11.3-25.78C552.36,632,479.57,600.84,428,600.84h-1.45a9.75,9.75,0,0,0-7.71,2.91c-3.41,3.67-4.21,10.65-2.33,20.19Z" transform="translate(-181.51 -181.51)"/><path d="M421,504.44a3.16,3.16,0,0,0-1.84-4.05l-21.7-7.57a1.83,1.83,0,0,0-2.31,1.22l-1,2.92a1.84,1.84,0,0,0,1.07,2.35l20.1,6.94c2.88.71,5,.24,5.56-1.48Z" transform="translate(-181.51 -181.51)"/><path class="cls-1" d="M417.69,507.32a10.71,10.71,0,0,1-2.54-.35L395,500a2.6,2.6,0,0,1-1.53-3.3l1-2.92a2.68,2.68,0,0,1,1.36-1.57,2.48,2.48,0,0,1,1.91-.11l21.7,7.56a3.92,3.92,0,0,1,2.3,5l-.11.33C421.09,506.52,419.71,507.32,417.69,507.32ZM396.9,493.48a1,1,0,0,0-.45.1,1.21,1.21,0,0,0-.59.7l-1,2.92a1.1,1.1,0,0,0,.61,1.4l20.09,6.94c1.14.27,4,.77,4.61-1l.11-.33a2.43,2.43,0,0,0-1.37-3.11l-21.71-7.56A.84.84,0,0,0,396.9,493.48Z" transform="translate(-181.51 -181.51)"/><path d="M433.24,466.82c.57-1.69-1.44-3.8-4-4.64l-18.57-6.64a1.8,1.8,0,0,0-2.24,1.24l-1,2.92a1.81,1.81,0,0,0,1,2.33l20.79,7.25a3.12,3.12,0,0,0,3.87-2.14Z" transform="translate(-181.51 -181.51)"/><path class="cls-1" d="M430.16,470.18A3.47,3.47,0,0,1,429,470l-20.79-7.26a2.56,2.56,0,0,1-1.45-3.27l1-2.92a2.74,2.74,0,0,1,1.37-1.59,2.34,2.34,0,0,1,1.83-.12l18.57,6.64a7.34,7.34,0,0,1,4.2,3.29,3,3,0,0,1,.23,2.3l-.11.32a4.17,4.17,0,0,1-2.09,2.43A3.63,3.63,0,0,1,430.16,470.18Zm-20-14a.9.9,0,0,0-.4.1,1.22,1.22,0,0,0-.61.72l-1,2.92a1.07,1.07,0,0,0,.53,1.38l20.79,7.25a2,2,0,0,0,1.58-.11,2.7,2.7,0,0,0,1.33-1.55l.1-.33a1.43,1.43,0,0,0-.15-1.15,6,6,0,0,0-3.34-2.54l-18.58-6.64A.65.65,0,0,0,410.18,456.2Z" transform="translate(-181.51 -181.51)"/><path class="cls-1" d="M425.4,501.52s54.43,15.66,80,23.94c23.81,7.69,9.29,6.61,23.72,10.64,18.62,5.2,68.33,17.34,82.19,20.62l4-7.76-1.11-18.85s14.33.42-73.27-28.26c-23-7.52-70.46-18.47-106.3-30.26Z" transform="translate(-181.51 -181.51)"/><path d="M611.74,557.58l-.57-.13c-12.77-3-63.36-15.35-82.22-20.63-6.3-1.76-7.28-2.58-8.35-3.78s-2.36-2.65-15.4-6.87c-25.3-8.17-79.47-23.78-80-23.93l-.74-.22,9.77-31.38.72.23c20,6.59,43.72,12.93,64.64,18.52,16.9,4.52,31.5,8.42,41.66,11.75,75.36,24.67,74.86,27.55,74.65,28.78a1.11,1.11,0,0,1-.82.84l1.08,18.36ZM426.34,501c6.6,1.9,55.61,16.07,79.32,23.73,13.43,4.34,14.89,6,16.06,7.3.8.9,1.43,1.6,7.63,3.34,18.58,5.19,68,17.24,81.6,20.47l3.68-7.06-1.15-19.45h.34c-2.61-1.84-15.18-7.85-73-26.79-10.12-3.31-24.7-7.21-41.59-11.72-20.69-5.53-44.1-11.79-64-18.3Z" transform="translate(-181.51 -181.51)"/><path d="M408.12,461.93l-11-3.71a48.3,48.3,0,0,0-6.65,12.33c-.26.69-.51,1.38-.76,2.1l-.3.88c-.12.39-.25.77-.36,1.15a50.1,50.1,0,0,0-2.42,13.86l11.27,3.8Z" transform="translate(-181.51 -181.51)"/><path class="cls-1" d="M398.35,493.29l-12.5-4.21v-.55a52.32,52.32,0,0,1,2.46-14.07c.08-.25.16-.52.25-.79l.42-1.26c.25-.73.51-1.43.77-2.13a49.55,49.55,0,0,1,6.76-12.52l.33-.42,12.23,4.12Zm-11-5.28,10,3.38,9.76-29-9.8-3.3a48.86,48.86,0,0,0-6.22,11.72c-.25.67-.51,1.37-.75,2.08l-.41,1.23c-.08.26-.17.51-.24.76A50.83,50.83,0,0,0,387.37,488Z" transform="translate(-181.51 -181.51)"/><path d="M410.19,462.65l-11-3.71a47.61,47.61,0,0,0-6.65,12.32c-.26.69-.52,1.39-.77,2.11l-.29.87c-.12.4-.25.78-.36,1.16a50.47,50.47,0,0,0-2.43,13.86L400,493.05Z" transform="translate(-181.51 -181.51)"/><path class="cls-1" d="M400.42,494l-12.5-4.21v-.54a51.8,51.8,0,0,1,2.46-14.07c.07-.25.15-.5.24-.77l.42-1.28c.26-.73.51-1.44.77-2.13a49.14,49.14,0,0,1,6.77-12.53l.32-.41,12.24,4.12Zm-11-5.28,10.05,3.38,9.76-29-9.81-3.3a48.78,48.78,0,0,0-6.21,11.71c-.26.68-.51,1.37-.76,2.08l-.42,1.26c-.07.25-.15.49-.22.73A51.38,51.38,0,0,0,389.43,488.72Z" transform="translate(-181.51 -181.51)"/><path d="M412.22,463.35l-11-3.71A47.69,47.69,0,0,0,394.55,472c-.26.68-.52,1.38-.77,2.1l-.29.88c-.13.39-.25.77-.36,1.15A50.47,50.47,0,0,0,390.7,490l11.28,3.8Z" transform="translate(-181.51 -181.51)"/><path class="cls-1" d="M402.45,494.71l-12.51-4.21V490a51.48,51.48,0,0,1,2.46-14.07c.07-.25.16-.52.24-.79l.42-1.26c.26-.73.51-1.44.77-2.13a49.32,49.32,0,0,1,6.77-12.53l.32-.41,12.24,4.12Zm-11-5.29,10.05,3.39,9.76-29-9.81-3.3a49,49,0,0,0-6.21,11.71c-.26.68-.51,1.37-.76,2.09l-.41,1.23c-.08.25-.16.51-.23.76A51.31,51.31,0,0,0,391.46,489.42Z" transform="translate(-181.51 -181.51)"/><path d="M414.18,464l-11-3.71a48.3,48.3,0,0,0-6.65,12.33c-.26.68-.51,1.38-.76,2.1l-.3.88c-.12.39-.25.77-.36,1.15a50.47,50.47,0,0,0-2.43,13.86l11.28,3.8Z" transform="translate(-181.51 -181.51)"/><path class="cls-1" d="M404.41,495.39l-12.5-4.21v-.55a52.19,52.19,0,0,1,2.46-14.07c.08-.25.16-.52.25-.79l.42-1.26c.25-.73.51-1.44.77-2.13a49.14,49.14,0,0,1,6.76-12.53l.33-.41,12.23,4.12Zm-11-5.29,10,3.39,9.76-29-9.8-3.3a49,49,0,0,0-6.22,11.71c-.25.68-.51,1.37-.76,2.09l-.4,1.23c-.09.26-.17.51-.24.76A50.83,50.83,0,0,0,393.43,490.1Z" transform="translate(-181.51 -181.51)"/><path d="M408.88,500.38l-14-4.72a63.13,63.13,0,0,1,3-17.21c.14-.47.3-.95.45-1.43l.37-1.09c.31-.9.62-1.76.95-2.62A59.58,59.58,0,0,1,407.91,458l25.86,8.92,4.45,4.94-5.31,15.8" transform="translate(-181.51 -181.51)"/><path class="cls-1" d="M408.64,501.09l-14-4.72a.74.74,0,0,1-.51-.72,63.88,63.88,0,0,1,3.05-17.43q.13-.47.3-1l.52-1.57c.31-.91.63-1.78.95-2.64a61,61,0,0,1,8.38-15.51.75.75,0,0,1,.83-.25L434,466.22a.79.79,0,0,1,.31.2l4.45,4.94a.77.77,0,0,1,.16.74l-5.32,15.8-1.43-.48L437.37,472l-4-4.47-25.17-8.68a60.23,60.23,0,0,0-7.82,14.69c-.32.85-.63,1.71-.94,2.59l-.51,1.55q-.16.46-.3.93a64,64,0,0,0-3,16.47l13.49,4.55Z" transform="translate(-181.51 -181.51)"/><path class="cls-1" d="M393.3,495.16l27.54,9.46,6.75-1.17,5.32-15.79-35.58-12.19s-.59,1.71-.77,2.29A85.2,85.2,0,0,0,393.3,495.16Z" transform="translate(-181.51 -181.51)"/><path d="M420.84,505.37a.7.7,0,0,1-.25-.05l-27.53-9.45a.75.75,0,0,1-.51-.76,87,87,0,0,1,3.3-17.58c.18-.58.77-2.31.77-2.31a.75.75,0,0,1,1-.46L433.15,487a.75.75,0,0,1,.47.95l-5.32,15.79a.75.75,0,0,1-.59.5L421,505.35Zm-26.75-10.73,26.81,9.2,6.12-1L432,488.12l-34.16-11.7c-.18.54-.42,1.24-.52,1.57A84.76,84.76,0,0,0,394.09,494.64Z" transform="translate(-181.51 -181.51)"/><path class="cls-1" d="M403.37,470.23a76.65,76.65,0,0,1,5.45-9.85l22.17,7.7C408.71,460.64,403.46,470.1,403.37,470.23Z" transform="translate(-181.51 -181.51)"/><path d="M421.37,491.94a6.67,6.67,0,0,1-4.43,2.06s2.32-1,2.66-2.77c-1.3.18-3.85,0-7.61-3,.41.19,7.07,3.4,7.88,1.66l0-.79-12.51-5.28,15.55,5.24A13.71,13.71,0,0,1,421.37,491.94Z" transform="translate(-181.51 -181.51)"/><ellipse class="cls-1" cx="430.16" cy="486.73" rx="6.95" ry="2.36" transform="translate(-349.91 557.57) rotate(-71.39)"/><path d="M427.16,486a3.27,3.27,0,0,0-2-4.12l-23.66-8.22a1.89,1.89,0,0,0-2.41,1.18l-1,2.92a1.9,1.9,0,0,0,1.17,2.39l23.63,8.21a3.26,3.26,0,0,0,4.16-2Z" transform="translate(-181.51 -181.51)"/><path class="cls-1" d="M424,489.26a4,4,0,0,1-1.33-.22L399,480.83a2.67,2.67,0,0,1-1.63-3.34l1-2.92a2.62,2.62,0,0,1,3.37-1.64l23.66,8.22a4,4,0,0,1,2.47,5.06l-.11.32a3.93,3.93,0,0,1-2,2.32A3.84,3.84,0,0,1,424,489.26Zm-23.11-15a1.17,1.17,0,0,0-.49.11,1.14,1.14,0,0,0-.58.66l-1,2.92a1.14,1.14,0,0,0,.7,1.44l23.62,8.21a2.51,2.51,0,0,0,3.21-1.57l.11-.32a2.51,2.51,0,0,0-1.55-3.17l-23.65-8.22A1.32,1.32,0,0,0,400.86,474.28Z" transform="translate(-181.51 -181.51)"/><line x1="252.26" y1="285.41" x2="244.98" y2="307.63"/><rect class="cls-1" x="418.45" y="477.6" width="23.38" height="0.86" transform="translate(-339.7 556.16) rotate(-71.83)"/><polygon class="cls-1" points="239.09 322.06 212.62 312.96 212.06 314.87 212.76 314.95 213.23 315.01 239.26 323.92 239.89 323.91 240.73 321.94 239.09 322.06"/><path class="cls-3" d="M398.51,484.11a77.51,77.51,0,0,0-1.59,11.15s22.27,7.59,22.21,7.58C397.15,494.9,398.51,484.27,398.51,484.11Z" transform="translate(-181.51 -181.51)"/><path class="cls-2" d="M564.29,409.18c-15.1-4.16-38.84-8.37-65.59-8.37a272.79,272.79,0,0,0-60.08,7.1A6,6,0,0,0,434,413.7v.11a6,6,0,0,0,5.42,5.92l.13,35.8a4.24,4.24,0,0,0,1.59,3.3l23.47,18.9a6,6,0,0,1,2.23,4.35l1,19.93,7.93,202.48h48.79L533.46,502l1.1-19.8a6,6,0,0,1,2.31-4.41l24.7-19.08a4.24,4.24,0,0,0,1.65-3.36V420.82a5.94,5.94,0,0,0,1.07-11.64Z" transform="translate(-181.51 -181.51)"/><path class="cls-1" d="M525.49,705.49h-50.7l0-1-7.93-202.48-1-19.91a5,5,0,0,0-1.85-3.63l-23.48-18.9a5.24,5.24,0,0,1-2-4.07l-.13-35a6.92,6.92,0,0,1-5.42-6.77v-.11a7,7,0,0,1,5.44-6.76,270.39,270.39,0,0,1,60.3-7.13,257.38,257.38,0,0,1,65.85,8.4h0a6.94,6.94,0,0,1-.34,13.46v33.69a5.26,5.26,0,0,1-2,4.15l-24.7,19.09a5,5,0,0,0-1.92,3.66l-1.1,19.81Zm-48.78-2h46.87L532.47,502l1.09-19.82a7,7,0,0,1,2.7-5.14L561,457.93a3.26,3.26,0,0,0,1.26-2.57V419.92l.9-.09a4.94,4.94,0,0,0,.9-9.69,255.31,255.31,0,0,0-65.32-8.33,268.28,268.28,0,0,0-59.86,7.08A5,5,0,0,0,435,413.7v.11a4.94,4.94,0,0,0,4.51,4.92l.9.09.14,36.71a3.26,3.26,0,0,0,1.21,2.52L465.2,477a7,7,0,0,1,2.59,5.08l1,19.93Z" transform="translate(-181.51 -181.51)"/><path class="cls-1" d="M519.93,693.64l8.54-212.93c0-1.2-.54-1.4-1.71-1.63-5.17-1-14.79-1.83-29.14-1.83s-21.16,1.55-21.16,2.19,12-1,24.41,1.13c10.25,1.77,10.36,7,10.48,11.79.1,4,2,196.12,2.5,200.21C513.91,693.16,519.93,694.23,519.93,693.64Z" transform="translate(-181.51 -181.51)"/><path class="cls-1" d="M478.32,495.4l7.52,222.94c.09,1.19.65,1.35,1.84,1.48,5.23.58,14.83,0,29.14-1.12s17-2.62,17-3.26-16.17,1.79-28.75.65c-10.36-.94-11.82-5.55-12.32-10.31-.41-4-12.46-205-13.25-209.08C479.36,496.12,478.27,494.81,478.32,495.4Z" transform="translate(-181.51 -181.51)"/><path class="cls-1" d="M444.1,419.7c-.37.08,0,24.36,0,24.36a.66.66,0,0,0,.9.59c2.34-.86,9.61-3,25.9-4.47,13.85-1.22,28.3-1.44,32.07-1.65a350.77,350.77,0,0,0-48.73,1.61c-7.13.8-8.27,1.09-8.49-3.1s-.43-5.45-.66-10.05C445.07,426.38,444.47,419.62,444.1,419.7Z" transform="translate(-181.51 -181.51)"/><path class="cls-1" d="M444.61,455.54a1.83,1.83,0,0,1,.75-3.11,80.39,80.39,0,0,1,14.37-2.34c13.22-1.25,15.24-1.32,21-1.13.81,0-30.43,2.28-33.65,4.84-1.75,1.39,3,4.82,7.42,9,3.36,3.16,9.41,8.22,9.6,9.31C464.14,472.61,450.21,460.61,444.61,455.54Z" transform="translate(-181.51 -181.51)"/><path class="cls-1" d="M470.71,444.8c-2.08-.19,13.77-2.11,25.54-2.44,5.91-.17,35.73.28,38.94.6,4.09.41,3-18.07,3-18.9-.12-5.16-7.52-6.75-14.63-7.69-30.21-4-51.08-.75-51.08-1.41s22.62-2.64,38-1.92c16.62.77,41.73,5.1,45.92,6,1.26.28,2.47.53,2.47,1.82l-.36,32.18a3.51,3.51,0,0,1-1.33,2.73c-5.37,4.27-26.46,20.92-26.64,20.56-.06-.11-17.54-1.84-27.41-1.8-10.74.06-13.44.67-13.05.39,2.1-1.51,16.41-.54,20.1-3.1,3-2.08,22.38-18.48,25.2-24.53.65-1.4-1.32-1.79-2-1.85A419.61,419.61,0,0,0,470.71,444.8Z" transform="translate(-181.51 -181.51)"/><path class="cls-1" d="M436.62,413.83c-.11-3.16,3.13-3.77,7.22-4.62s9.35-1.79,12.44-2.17c2.58-.31,10.33-1.63,3.81-.05s-20.64,4-21.25,5.76,2.23,1.46,2.18,3.47C441,417.14,436.72,417,436.62,413.83Z" transform="translate(-181.51 -181.51)"/><path class="cls-1" d="M566.15,414.92c.4-3.72-4.44-4.56-22.58-7.92s-26.82-3.27-22.59-2.7c9.27,1.24,16.69,2.35,26.22,4.46,14.76,3.26,12.31,7.9,14.61,9.27A3.45,3.45,0,0,0,566.15,414.92Z" transform="translate(-181.51 -181.51)"/><path class="cls-1" d="M460.43,540.88S422,529.8,399,529.8c-1.22,0-.6,23.35-.6,23.35L435.61,565Z" transform="translate(-181.51 -181.51)"/><path d="M435.87,566.18l-38.42-12.3,0-.71c-.4-15-.13-23.07.79-24a1.15,1.15,0,0,1,.81-.35c22.84,0,61.29,11,61.67,11.11l1.66.48Zm-36.46-13.77,35.93,11.5,23.14-22.54c-7.54-2.08-38.93-10.39-58.83-10.56C399.22,533.18,399.18,543.14,399.41,552.41Z" transform="translate(-181.51 -181.51)"/><path class="cls-1" d="M624,526.46c-1.08-6-8.36-10.66-26.77-13.32s-32.81-2.22-58.53.88c-22.89,2.77-58.3,7.32-93.87,19.1-46.61,15.43-44.34,3-44.34,3,.15-3.54,6.71-7.09,32.31-.66,3.51,1.08-40.75-17-44.73,1.82-1.18,5.61.71,11.32.84,16.63.27,11.43,10.51,21,25,20.19,21.28-1.1,32.68-7.15,55.64-14.41,59-18.62,140.85-17.8,143-8.63,1.1,4.72-8.4,4.16-23.86,1l-7.84-2.56c.1,0,18,7.75,32.81,7.44,9.06-.19,8-10.37,8.86-16.52S625.14,532.94,624,526.46Z" transform="translate(-181.51 -181.51)"/><g class="cls-4"><path d="M616.86,525.25a59.37,59.37,0,0,0-5.88-2.08,53.22,53.22,0,0,0-6.11-1.46,57.37,57.37,0,0,1,5.94,1.81q2.87,1.08,5.58,2.41t5.22,2.85c1.1.65,2.16,1.34,3.19,2.08.3-.5.55-.93.76-1.31q-1.51-.9-3.09-1.71C620.66,526.9,618.78,526,616.86,525.25Z" transform="translate(-181.51 -181.51)"/><path d="M609.72,519.14a51,51,0,0,1,5.27,2.08c1.7.77,3.34,1.62,5,2.54a44.89,44.89,0,0,1,4,2.51,2.56,2.56,0,0,0,0-1.81c-1.06-.61-2.16-1.17-3.26-1.7q-2.59-1.25-5.29-2.25a50.44,50.44,0,0,0-5.52-1.73,45.72,45.72,0,0,0-5.69-1.1A48.19,48.19,0,0,1,609.72,519.14Z" transform="translate(-181.51 -181.51)"/><path d="M617.85,529.63a57.83,57.83,0,0,0-5.87-2.12,51.33,51.33,0,0,0-6.11-1.49,50.9,50.9,0,0,1,5.93,1.85,60.28,60.28,0,0,1,5.58,2.43c1.78.9,3.53,1.87,5.2,2.89.35.22.71.44,1,.67.15-.44.31-.86.46-1.26l-.64-.34Q620.72,530.83,617.85,529.63Z" transform="translate(-181.51 -181.51)"/><path d="M616.84,539.86a36.8,36.8,0,0,0-5.5-2.23,40.35,40.35,0,0,0-5.79-1.39,38.29,38.29,0,0,1,5.58,1.82,34,34,0,0,1,5.08,2.56,39.27,39.27,0,0,1,4.73,3.6c.44.35.86.72,1.27,1.1.26-.51.51-1,.76-1.49-.27-.2-.55-.38-.83-.57A45.14,45.14,0,0,0,616.84,539.86Z" transform="translate(-181.51 -181.51)"/><path d="M605.7,533.14a55.1,55.1,0,0,1,10.58,4.06c2.31,1.15,4.58,2.38,6.77,3.68.19-.43.38-.85.55-1.26-2.24-1.12-4.54-2.15-6.88-3.11A56.21,56.21,0,0,0,605.7,533.14Z" transform="translate(-181.51 -181.51)"/><path d="M616.78,533.11c-1.79-.67-3.62-1.27-5.47-1.78s-3.72-.94-5.6-1.31c1.84.5,3.68,1,5.45,1.67s3.51,1.34,5.21,2.12,3.3,1.61,4.88,2.52c.58.33,1.13.67,1.68,1,.16-.44.34-.86.51-1.27-.47-.24-.93-.48-1.4-.7C620.33,534.54,618.57,533.79,616.78,533.11Z" transform="translate(-181.51 -181.51)"/><path d="M618.74,553.43s4.8-9.13-13.49-13.4c0,0,11.36.73,16.49,9l-1.92,4.33Z" transform="translate(-181.51 -181.51)"/><path d="M394.85,564.79a59.8,59.8,0,0,0,6.14,1.13,54.59,54.59,0,0,0,6.26.47,55.11,55.11,0,0,1-6.15-.85c-2-.41-4-.9-5.89-1.5s-3.78-1.25-5.6-2c-1.19-.47-2.35-1-3.48-1.55-.21.54-.4,1-.54,1.42,1.08.42,2.2.82,3.31,1.19C390.85,563.76,392.83,564.31,394.85,564.79Z" transform="translate(-181.51 -181.51)"/><path d="M403.79,569.29a52.48,52.48,0,0,1-5.58-1c-1.81-.42-3.59-.92-5.36-1.5a45.31,45.31,0,0,1-4.38-1.66,2.57,2.57,0,0,0,.33,1.78c1.17.38,2.35.71,3.54,1q2.79.69,5.64,1.14a52.58,52.58,0,0,0,5.75.59,44.76,44.76,0,0,0,5.79-.08A45.64,45.64,0,0,1,403.79,569.29Z" transform="translate(-181.51 -181.51)"/><path d="M393.26,561.06a60,60,0,0,0,6.16,1.07,54.55,54.55,0,0,0,6.27.4,52.65,52.65,0,0,1-6.16-.79,58.68,58.68,0,0,1-5.92-1.43c-1.92-.57-3.81-1.22-5.63-1.94-.38-.15-.78-.3-1.15-.47-.07.46-.15.9-.23,1.31l.69.23Q390.23,560.37,393.26,561.06Z" transform="translate(-181.51 -181.51)"/><path d="M391.6,549a35.29,35.29,0,0,0,5.7,1.68,38.61,38.61,0,0,0,5.9.82,38,38,0,0,1-5.73-1.26,35.07,35.07,0,0,1-5.32-2,39.92,39.92,0,0,1-5.06-3.12c-.47-.31-.92-.63-1.36-1-.21.54-.42,1.06-.62,1.56l.88.5A46.13,46.13,0,0,0,391.6,549Z" transform="translate(-181.51 -181.51)"/><path d="M404.25,555.45a55.69,55.69,0,0,1-11-2.75c-2.43-.87-4.83-1.82-7.17-2.85-.14.45-.27.9-.39,1.32,2.36.84,4.77,1.59,7.2,2.26A56.86,56.86,0,0,0,404.25,555.45Z" transform="translate(-181.51 -181.51)"/><path d="M393.42,557.44q2.81.62,5.66,1c1.91.26,3.82.4,5.74.51-1.9-.24-3.79-.5-5.64-.89s-3.66-.82-5.46-1.35-3.49-1.13-5.19-1.81c-.61-.24-1.21-.5-1.8-.76-.1.46-.22.9-.32,1.34.49.17,1,.34,1.48.49C389.7,556.53,391.55,557,393.42,557.44Z" transform="translate(-181.51 -181.51)"/><path d="M389.62,535.47s-2.35,10.56,14,12.67c0,0-12.21,1.38-16-9.18l.8-3.42Z" transform="translate(-181.51 -181.51)"/></g><path class="cls-1" d="M599.34,582.24c-.47-5.62-5.46-10.56-20.63-11-17.69-.56-50.51,6-78.16,13.88-16.64,4.72-30.29,9.56-45,14.64-38.51,13.29-32.64,6.2-32.64,6.2,2.18-3.23,9-4.69,22.33-3.67,3.07.07-27.44-8.65-33.14,3.89-2.16,4.75-.73,11.47,0,16.41,1,6.32-1.83,14,8.48,17.51s24.35-2.33,52.65-13.52c42.9-17,109.65-27.23,112.63-18.32.42,1.26-4.55,3.36-19.63-2.74,0,0,18.12,11.36,24.61,6.87,5.77-4,4.49-9.59,5.88-15.85C598.35,589.36,599.79,587.7,599.34,582.24Z" transform="translate(-181.51 -181.51)"/><g class="cls-5"><path d="M591.79,577.15a40.8,40.8,0,0,1,3.87,2,34.73,34.73,0,0,1,3.16,2.11c-.05-.59-.1-1.18-.15-1.73-.81-.49-1.65-.93-2.49-1.34a41.46,41.46,0,0,0-4.12-1.76,32.56,32.56,0,0,0-4.27-1.26,28.4,28.4,0,0,0-4.38-.65,29,29,0,0,1,4.29,1A35.25,35.25,0,0,1,591.79,577.15Z" transform="translate(-181.51 -181.51)"/><path d="M594.51,599a22.41,22.41,0,0,0-4.54-2.53,35.82,35.82,0,0,0-4.88-1.63l-2.5-.56-2.52-.43,2.47.61,2.44.74a35.63,35.63,0,0,1,4.64,2,20.81,20.81,0,0,1,4.1,2.71,12.11,12.11,0,0,1,1.66,1.7,7.72,7.72,0,0,1,.71,1.3,16.64,16.64,0,0,0,.94-1.42,4.6,4.6,0,0,0-.55-.72A14.79,14.79,0,0,0,594.51,599Z" transform="translate(-181.51 -181.51)"/><path d="M585.81,590.83a24.24,24.24,0,0,1,4.39,1.36,28.21,28.21,0,0,1,4,2,24.09,24.09,0,0,1,3.44,2.52,17.53,17.53,0,0,0,.48-1.77,24.3,24.3,0,0,0-3.21-1.85,28.94,28.94,0,0,0-4.42-1.73,25.24,25.24,0,0,0-4.64-1,26.08,26.08,0,0,0-4.68-.17A26.32,26.32,0,0,1,585.81,590.83Z" transform="translate(-181.51 -181.51)"/><path d="M598.24,591.49l.08,0,.2.07c.07-.5.13-1,.18-1.52a61.41,61.41,0,0,0-7.52-3,31.56,31.56,0,0,0-8.15-1.65,31.56,31.56,0,0,1,7.9,2.33A64.45,64.45,0,0,1,598.24,591.49Z" transform="translate(-181.51 -181.51)"/><path d="M591.29,584.14a35.06,35.06,0,0,1,3.72,1.47,27,27,0,0,1,3.45,1.9v0l.07,0a.62.62,0,0,0,.26.09s0,0,0,0c0-.56,0-1.1-.06-1.63a27.08,27.08,0,0,0-3.33-1.42,34,34,0,0,0-3.93-1.16,32.61,32.61,0,0,0-4-.68,36.31,36.31,0,0,0-4-.24,37.81,37.81,0,0,1,4,.6A34.47,34.47,0,0,1,591.29,584.14Z" transform="translate(-181.51 -181.51)"/><path d="M591.83,580.62a37.3,37.3,0,0,1,3.76,1.7,20.38,20.38,0,0,1,3.38,2.16l0,0,.05,0a.72.72,0,0,0,.27.12c0-.6-.05-1.17-.06-1.73a21.73,21.73,0,0,0-3.23-1.63,41,41,0,0,0-4-1.39c-1.35-.41-2.71-.72-4.08-1s-2.74-.49-4.12-.67c1.36.3,2.71.64,4,1S590.55,580.11,591.83,580.62Z" transform="translate(-181.51 -181.51)"/><path d="M592.48,604.13a11,11,0,0,0-2.35-1.86,25.37,25.37,0,0,0-5.25-2.34c-1.79-.59-3.61-1-5.44-1.47,1.79.55,3.58,1.16,5.32,1.88a24.63,24.63,0,0,1,4.92,2.65c1.5,1,2.86,2.49,3.08,4.09a4.4,4.4,0,0,1-1.31,3.59,18.78,18.78,0,0,0,2.7-2.72,4.79,4.79,0,0,0-.12-1.06A5.9,5.9,0,0,0,592.48,604.13Z" transform="translate(-181.51 -181.51)"/><path d="M421.87,636.83c-1.44-.23-2.87-.51-4.28-.87-1.22-.31-2.42-.68-3.62-1.11.22.53.42,1,.62,1.54.92.23,1.84.42,2.76.58a44.45,44.45,0,0,0,4.44.54,35,35,0,0,0,4.46,0,29.4,29.4,0,0,0,4.39-.53,30.87,30.87,0,0,1-4.41.19A38,38,0,0,1,421.87,636.83Z" transform="translate(-181.51 -181.51)"/><path d="M413.39,618a22.69,22.69,0,0,0,5.11.88,38.49,38.49,0,0,0,5.15,0l2.55-.26,2.52-.39-2.54.21-2.54.08a36.75,36.75,0,0,1-5-.34,20.76,20.76,0,0,1-4.75-1.17,13,13,0,0,1-2.13-1,7.13,7.13,0,0,1-1.09-.95c-.16.5-.31,1-.43,1.56a6.12,6.12,0,0,0,.75.48A14.89,14.89,0,0,0,413.39,618Z" transform="translate(-181.51 -181.51)"/><path d="M423.91,622.86a27.09,27.09,0,0,1-4.59-.12,29,29,0,0,1-4.43-.82,25.3,25.3,0,0,1-4-1.41,16.8,16.8,0,0,0,0,1.73,25.5,25.5,0,0,0,3.6.86,29.81,29.81,0,0,0,4.72.44,26.76,26.76,0,0,0,4.73-.27,27.29,27.29,0,0,0,4.55-1A27.38,27.38,0,0,1,423.91,622.86Z" transform="translate(-181.51 -181.51)"/><path d="M411.94,625.32l-.09,0h-.21c.09.46.19.93.31,1.41a64.41,64.41,0,0,0,8.09.44,33.13,33.13,0,0,0,8.25-1,33.3,33.3,0,0,1-8.23.28A65.81,65.81,0,0,1,411.94,625.32Z" transform="translate(-181.51 -181.51)"/><path d="M420.45,630.34a35.1,35.1,0,0,1-4-.39,27.16,27.16,0,0,1-3.84-.84h-.09a.68.68,0,0,0-.28,0h0l.5,1.46a27.13,27.13,0,0,0,3.58.44,35.09,35.09,0,0,0,4.1,0,36.06,36.06,0,0,0,4.05-.4c1.33-.2,2.65-.5,3.94-.82a38.08,38.08,0,0,1-4,.47A33.51,33.51,0,0,1,420.45,630.34Z" transform="translate(-181.51 -181.51)"/><path d="M420.89,633.68a40.08,40.08,0,0,1-4.08-.59A21.08,21.08,0,0,1,413,632h0l-.06,0a.59.59,0,0,0-.29,0c.18.54.36,1.06.53,1.55a21.82,21.82,0,0,0,3.54.66,40,40,0,0,0,4.23.24c1.4,0,2.8,0,4.19-.13s2.78-.25,4.16-.43c-1.39.07-2.79.1-4.17.09S422.26,633.81,420.89,633.68Z" transform="translate(-181.51 -181.51)"/><path d="M413.89,612.47a11.67,11.67,0,0,0,2.76,1.09,27.65,27.65,0,0,0,5.69.79c1.89.07,3.77,0,5.64-.06-1.88,0-3.77-.14-5.63-.35a25.91,25.91,0,0,1-5.46-1.15c-1.72-.57-3.42-1.53-4.07-2.92a4,4,0,0,1,.28-3.61,18.21,18.21,0,0,0-1.86,3.17,4.25,4.25,0,0,0,.41.93A5.82,5.82,0,0,0,413.89,612.47Z" transform="translate(-181.51 -181.51)"/></g><path d="M465.19,619.4a232.83,232.83,0,0,1,27.64-11c4.72-1.54,9.49-2.92,14.28-4.2s9.61-2.49,14.44-3.61a261.32,261.32,0,0,1,29.32-5.29,69.21,69.21,0,0,0,7.31-.84,16.9,16.9,0,0,0,3.44-1,4.22,4.22,0,0,0,1.36-.89c.32-.38.32-.59-.06-.94a7.15,7.15,0,0,0-3.25-1.06,23.54,23.54,0,0,0-3.66-.14,48,48,0,0,0-7.35.89,40.27,40.27,0,0,1,7.32-1.4,23.55,23.55,0,0,1,3.76-.07,7.33,7.33,0,0,1,3.77,1.07,1.63,1.63,0,0,1,.65,1.08,1.61,1.61,0,0,1-.42,1.2,5.22,5.22,0,0,1-1.67,1.21,18.07,18.07,0,0,1-3.63,1.23,68.78,68.78,0,0,1-7.41,1.12c-4.88.6-9.74,1.5-14.59,2.43s-9.68,2-14.51,3.09c-9.63,2.21-19.24,4.59-28.75,7.27C483.71,612.36,474.39,615.71,465.19,619.4Z" transform="translate(-181.51 -181.51)"/><path d="M540.5,588.5c-5,.9-9.93,1.87-14.86,3s-9.86,2.17-14.75,3.41-9.77,2.51-14.61,3.92c-2.43.67-4.83,1.44-7.24,2.16s-4.77,1.58-7.13,2.44c-9.46,3.45-18.62,7.69-27.86,11.79-2.33,1-4.63,2-7.08,2.87a8.94,8.94,0,0,1-2,.45,1.57,1.57,0,0,1-.7-.09.91.91,0,0,1-.44-.38.84.84,0,0,1-.1-.53,2.56,2.56,0,0,1,.47-1.1,17.16,17.16,0,0,1,2.59-2.91,25.88,25.88,0,0,1,6.45-4.14,33.53,33.53,0,0,1,7.2-2.42,32.06,32.06,0,0,0-13,7.21c-6.59,6.2,2.39,1.43,6.07-.18,9.12-4.33,18.3-8.66,27.82-12.18,4.76-1.81,9.65-3.22,14.51-4.6s9.8-2.58,14.75-3.68,9.91-2,14.9-2.92S535.47,589,540.5,588.5Z" transform="translate(-181.51 -181.51)"/><path d="M448.45,556.83a128.49,128.49,0,0,1,17.77-6.51q9.07-2.72,18.32-4.79c12.33-2.74,24.72-5.17,37.21-7.06,6.25-1,12.51-1.82,18.81-2.39s12.61-1,19-1c3.18,0,6.3.24,9.44.16a51.58,51.58,0,0,0,9.3-.88,11.26,11.26,0,0,0,4.22-1.57,1.22,1.22,0,0,0,.52-.72.89.89,0,0,0-.38-.74,5.67,5.67,0,0,0-2-1,21.49,21.49,0,0,0-4.62-.71,43.68,43.68,0,0,0-4.72,0,29.89,29.89,0,0,1,9.48.24,6.1,6.1,0,0,1,2.27,1,1.54,1.54,0,0,1,.66,1.28,1.9,1.9,0,0,1-.72,1.23,11.36,11.36,0,0,1-4.49,1.9c-6.25,1.43-12.7,1.28-19,1.29-12.55.14-25.06,1.82-37.53,3.5-12.45,1.86-24.92,3.78-37.24,6.4-6.16,1.31-12.31,2.71-18.38,4.38-3,.84-6.06,1.72-9.06,2.7A90.59,90.59,0,0,0,448.45,556.83Z" transform="translate(-181.51 -181.51)"/><path d="M561.74,523.12c-6,.74-12.08,1.44-18.11,2.25s-12.06,1.55-18.08,2.42-12,1.73-18,2.73-12,2-17.9,3.25a327,327,0,0,0-35,10L446,546.61c-1.45.48-2.89.95-4.36,1.39a25.85,25.85,0,0,1-4.55,1.09,2.38,2.38,0,0,1-.73-.05.92.92,0,0,1-.54-.32.86.86,0,0,1-.14-.71,2.1,2.1,0,0,1,.35-.69,4.93,4.93,0,0,1,.41-.47,18.36,18.36,0,0,1,1.68-1.62,19.24,19.24,0,0,1,3.83-2.62,23,23,0,0,1,8.74-2.64,24.36,24.36,0,0,0-8.41,3.22,21.89,21.89,0,0,0-3.54,2.72,21.25,21.25,0,0,0-1.54,1.61,2.33,2.33,0,0,0-.5.72.22.22,0,0,0-.05-.17c-.07-.07-.08-.05,0-.05a1.3,1.3,0,0,0,.4,0,25.36,25.36,0,0,0,4.28-1.13c1.44-.47,2.87-1,4.3-1.48l8.59-3.07a298.25,298.25,0,0,1,35.1-10.26c12-2.46,24-4.18,36.12-5.63,6-.72,12.1-1.35,18.16-1.94S555.66,523.46,561.74,523.12Z" transform="translate(-181.51 -181.51)"/><path d="M582.45,637.36a62,62,0,0,1-2.9,17.14c-.26.83-.53,1.68-.82,2.54l-.37,1.05c-.17.46-.33.91-.5,1.35-2.28,6-4.35,10.32-7.18,14l-14.15-3.87-16.8-6.68,12.62-35,16.87,5.51.11,0Z" transform="translate(-181.51 -181.51)"/><path class="cls-1" d="M571,674.32l-14.64-4-17.55-7,13.11-36.41,17.64,5.76,13.67,4.11v.56a62.67,62.67,0,0,1-2.93,17.36c-.27.84-.54,1.69-.83,2.56l-.53,1.49c-.12.32-.23.63-.35.94-2.52,6.63-4.63,10.74-7.28,14.21Zm-30.29-11.84,16.13,6.41,13.58,3.72c2.42-3.27,4.4-7.21,6.77-13.44.12-.3.23-.6.34-.91l.52-1.47c.29-.84.56-1.69.81-2.51a62.06,62.06,0,0,0,2.87-16.36L569,634.1l-16.21-5.3Z" transform="translate(-181.51 -181.51)"/><path d="M582.35,637.46l-.16.43-13-4.54.11-.34a2.35,2.35,0,0,1,3-1.48l8.54,2.91A2.37,2.37,0,0,1,582.35,637.46Z" transform="translate(-181.51 -181.51)"/><path class="cls-1" d="M582.63,638.84l-14.34-5,.33-1A3.14,3.14,0,0,1,570.2,631a3.1,3.1,0,0,1,2.39-.15l8.53,2.91a3.12,3.12,0,0,1,1.94,4Zm-12.42-5.94,11.5,4a1.54,1.54,0,0,0-.14-1,1.6,1.6,0,0,0-.93-.82l-8.54-2.91a1.59,1.59,0,0,0-1.23.08A1.55,1.55,0,0,0,570.21,632.9Z" transform="translate(-181.51 -181.51)"/><polygon points="370.21 446.14 357.8 482.04 353.83 476.9 364.56 446.81 370.21 446.14"/><path class="cls-1" d="M539.31,664.3a.72.72,0,0,1-.59-.29l-4-5.13a.76.76,0,0,1-.12-.71l10.73-30.1a.72.72,0,0,1,.61-.49l5.66-.67a.75.75,0,0,1,.67.28.76.76,0,0,1,.13.71L540,663.8a.74.74,0,0,1-.59.49Zm-3.12-6,2.86,3.71,11.58-33.45-4,.47Z" transform="translate(-181.51 -181.51)"/><path class="cls-1" d="M545.24,638.21c1.18.41.89,3.39-.33,6.88s-2.92,6.17-4.1,5.75-.48-4.09.75-7.58S544.05,637.79,545.24,638.21Z" transform="translate(-181.51 -181.51)"/><path class="cls-1" d="M540.37,643.6l37,13-.94,2.33c0,.07-.62,1.6-.67,1.66-2.21,5.44-4,9.37-6.93,13.31l-12.29-4.35-17.22-6-4.25-4.8Z" transform="translate(-181.51 -181.51)"/><path d="M568.82,674.69a.79.79,0,0,1-.25-.05l-29.51-10.38a.66.66,0,0,1-.31-.21l-4.25-4.8a.76.76,0,0,1-.15-.75l5.31-15.15a.75.75,0,0,1,.38-.42.73.73,0,0,1,.58,0l37,13a.71.71,0,0,1,.43.4.75.75,0,0,1,0,.59l-.95,2.32h0s-.45,1.21-.67,1.67h0c-2.08,5.07-3.91,9.29-7,13.46A.75.75,0,0,1,568.82,674.69Zm-29.08-11.78L568.55,673c2.56-3.53,4.23-7.1,6.51-12.69l0-.07c.09-.19.57-1.42.62-1.56l.66-1.63-35.54-12.53-4.92,14Z" transform="translate(-181.51 -181.51)"/><rect class="cls-1" x="542.94" y="641.72" width="2" height="5.93" transform="translate(-426.58 761.43) rotate(-70.55)"/><path d="M557.49,669.05l.17-.6,13.1,4.63-.19.53a2.71,2.71,0,0,1-3.08,1.38L559,672.07A2.35,2.35,0,0,1,557.49,669.05Z" transform="translate(-181.51 -181.51)"/><path class="cls-1" d="M568.22,675.86a3,3,0,0,1-1-.16l-8.53-2.92a3.06,3.06,0,0,1-1.8-1.58,3.1,3.1,0,0,1-.15-2.37l.38-1.35,14.58,5.14-.54,1.41A3.7,3.7,0,0,1,568.22,675.86Zm-10.06-6.44a1.61,1.61,0,0,0,1,1.94l8.54,2.92a1.82,1.82,0,0,0,2-.78Z" transform="translate(-181.51 -181.51)"/><rect class="cls-1" x="567.19" y="668.96" width="2" height="5.75" transform="translate(-443.67 781.39) rotate(-69.1)"/><path class="cls-1" d="M553.4,629.81l13.25,4.65-2.42,6.91S566.52,635.57,553.4,629.81Z" transform="translate(-181.51 -181.51)"/><path class="cls-1" d="M570.16,635.76l10,3.42s-.35,8.34-1.62,11.78A15,15,0,0,0,570.16,635.76Z" transform="translate(-181.51 -181.51)"/><path class="cls-1" d="M576.72,641.84s-3.4-5.48-10.5,4.94l4-11.1,5.28,2.08Z" transform="translate(-181.51 -181.51)"/><g id="Path_12939" data-name="Path 12939"><path d="M560.14,652.77l-12.62-4.36-1.7,2.12s1.11,3.12,8.11,3.22c0,0-7.33-1.65-6.87-3.49l.72-1Z" transform="translate(-181.51 -181.51)"/></g><g id="Path_12948" data-name="Path 12948"><path d="M545.84,650.48s-.53,3.43.9,4.59c0,0-1.35-2.58-.09-4.08Z" transform="translate(-181.51 -181.51)"/></g><path d="M574.89,641.13c3.59,1.26,4.47,8.08,2,15.24s-7.46,12-11.05,10.69-4.66-7.95-2.15-15.11S571.3,639.87,574.89,641.13Z" transform="translate(-181.51 -181.51)"/><path d="M579.18,655.81l-.92,2.63a1.92,1.92,0,0,1-2.44,1.17l-12.13-4.28a2,2,0,0,1-1.26-2.61l.86-2.41a2,2,0,0,1,2.59-1.25L578,653.38A1.92,1.92,0,0,1,579.18,655.81Z" transform="translate(-181.51 -181.51)"/><path class="cls-1" d="M576.45,660.47a2.71,2.71,0,0,1-.88-.15L563.44,656a2.79,2.79,0,0,1-1.6-1.43,2.73,2.73,0,0,1-.11-2.15l.85-2.4a2.79,2.79,0,0,1,3.55-1.7l12.13,4.31a2.66,2.66,0,0,1,1.62,3.39h0l-.92,2.63A2.66,2.66,0,0,1,576.45,660.47ZM565.21,649.7a1.3,1.3,0,0,0-1.22.86l-.85,2.41a1.29,1.29,0,0,0,.79,1.65l12.14,4.28a1.16,1.16,0,0,0,1.48-.71l.92-2.62a1.18,1.18,0,0,0-.71-1.49l-12.13-4.31A1.23,1.23,0,0,0,565.21,649.7Z" transform="translate(-181.51 -181.51)"/><path d="M412.27,575.15a25.61,25.61,0,0,1-17.64-6.5,20.58,20.58,0,0,1-6.74-14.71,51.42,51.42,0,0,0-.59-5.72c-.5-3.63-1-7.37-.22-11.14,1.05-5,4.72-8,10.92-9,12.74-2.08,35,5.56,35.84,6.94a.9.9,0,0,1,.13.41c4.1-1.15,7.8-2.33,10.52-3.23,37-12.25,74.13-16.73,94.07-19.14,26.78-3.23,41.07-3.44,58.79-.88,17.57,2.54,26.34,7,27.61,14.13a18.79,18.79,0,0,1-.48,9.47,35.88,35.88,0,0,0-1,4.81c-.14,1-.22,2.1-.32,3.28-.45,5.87-1.06,13.92-9.52,14.1-15.08.3-33.06-7.45-33.24-7.53a1,1,0,0,1,.72-1.86l7.78,2.54c13.16,2.69,20.7,3.16,22.41,1.4a1.13,1.13,0,0,0,.22-1.2c0-.23-.3-.7-1.37-1.31-12.19-7-86.42-6.36-140.35,10.67-5.75,1.81-10.89,3.59-15.42,5.17-13.63,4.72-24.39,8.44-40.47,9.28C413.37,575.13,412.82,575.15,412.27,575.15Zm-9.36-45.46a21.42,21.42,0,0,0-8.81,1.56,8.49,8.49,0,0,0-5.07,6.24c-.72,3.43-.23,7,.25,10.45a52.16,52.16,0,0,1,.61,5.95,18.6,18.6,0,0,0,6.1,13.29c4.51,4.19,10.84,6.28,17.83,5.93,15.79-.83,25.91-4.33,39.91-9.18,4.55-1.58,9.7-3.36,15.48-5.19,55.41-17.5,129.18-17.77,141.94-10.5a4.34,4.34,0,0,1,2.33,2.6,3.1,3.1,0,0,1-.74,3c-1.07,1.1-3.16,1.64-6.57,1.62a50.47,50.47,0,0,0,7.42.43c6.18-.13,7-5.16,7.58-12.26.09-1.2.18-2.34.32-3.39a40.65,40.65,0,0,1,1-5,16.68,16.68,0,0,0,.46-8.62h0c-1.09-6-9.57-10.14-25.93-12.5-17.53-2.54-31.69-2.32-58.27.89-19.87,2.4-56.87,6.86-93.68,19.05C421.22,542,406,543.9,401,539.6a4.17,4.17,0,0,1,.25-6.71c2.44-1.81,7.17-2.39,14-1.73A62.43,62.43,0,0,0,402.91,529.69Zm7.39,3.22c-4.85,0-6.95.94-7.83,1.59a2.17,2.17,0,0,0-1,1.66.59.59,0,0,1,0,.14,2.24,2.24,0,0,0,1,1.85c4.27,3.53,17.59,1,28.93-2C421.33,533.68,414.69,532.91,410.3,532.91Z" transform="translate(-181.51 -181.51)"/><path d="M427.24,642.11a20.94,20.94,0,0,1-6.93-1.09c-8.65-3-8.77-8.84-8.87-14a30.67,30.67,0,0,0-.28-4.28c-.07-.49-.16-1-.24-1.52-.81-4.86-1.8-10.91.27-15.46,4.9-10.79,26.1-7.18,33.13-5.06.92.27,1.75.52,2,1.06,2.64-.85,5.59-1.83,8.87-3l4.27-1.48c13.24-4.58,25.74-8.9,40.79-13.17,24-6.8,59-14.53,78.46-13.92,9.42.29,20.81,2.6,21.59,11.95a21.66,21.66,0,0,1-1.16,9.08c-.43,1.5-.92,3.19-1.43,5.49a45.11,45.11,0,0,0-.7,4.69c-.49,4.4-1,8.57-5.58,11.76-6.83,4.74-23.8-5.64-25.71-6.84a1,1,0,0,1-.19-.16c-23.37,1.53-62.66,9.74-91.91,21.3l-3.38,1.34C449.37,637.09,436.69,642.11,427.24,642.11Zm.72-41.73a28.42,28.42,0,0,0-8.63,1.16c-3.14,1-5.27,2.71-6.32,5-1.82,4-.88,9.71-.12,14.31.09.52.17,1,.25,1.52a34.8,34.8,0,0,1,.3,4.56c.1,5.18.19,9.65,7.52,12.17,9.54,3.28,22.58-1.88,48.58-12.17l3.38-1.34c37.51-14.83,99-25.91,111.5-20.08a4.27,4.27,0,0,1,2.44,2.37,1.6,1.6,0,0,1-.48,1.67c-1.09,1-4,1.47-8.94.48,5,2,10.25,3.3,12.88,1.48,3.87-2.68,4.25-6.06,4.74-10.35a43.24,43.24,0,0,1,.73-4.89c.52-2.36,1-4.09,1.45-5.61a19.84,19.84,0,0,0,1.1-8.37h0c-.36-4.34-4.07-9.63-19.67-10.11-19.26-.61-54,7.08-77.85,13.85-15,4.24-27.46,8.56-40.67,13.13l-4.28,1.48c-31.37,10.83-33.26,8.09-34,7.06a2,2,0,0,1,.25-2.44c1.8-2.67,6.3-4.11,13.63-4.32A57.18,57.18,0,0,0,428,600.38ZM570.31,606c9.36,3.32,13.5,2.8,14.5,2.31a3.13,3.13,0,0,0-1.24-.91C581.15,606.22,576.51,605.79,570.31,606Zm-146.67.69c.6.29,3.72.87,18.46-3.58-12.74-.63-17,1.47-18.37,3.43Z" transform="translate(-181.51 -181.51)"/></g><g id="UL_WORDMARK"><path d="M500,693.37a56,56,0,0,1,28,7.41c1.06.6,2.1,1.25,3.11,1.92A56.44,56.44,0,1,1,471,701.4c.77-.48,1.57-.93,2.36-1.35A56.34,56.34,0,0,1,500,693.37m0-12a68.75,68.75,0,0,0-32.35,8.1c-1.09.59-2.06,1.14-3,1.7a68.45,68.45,0,1,0,73,1.52c-1.34-.89-2.58-1.65-3.8-2.35a68.25,68.25,0,0,0-33.89-9Z" transform="translate(-181.51 -181.51)"/><path class="cls-1" d="M500,691.31c-31.92,0-58.13,25.88-58.57,57.11-.47,33.12,25.88,59.78,58,59.9,32.43.12,59.11-26,59.13-57.7C558.58,717.44,532.83,691.35,500,691.31Z" transform="translate(-181.51 -181.51)"/><path class="cls-2" d="M450.28,749.8A49.8,49.8,0,1,1,500,799.63,49.88,49.88,0,0,1,450.28,749.8Zm39-32.59v20.66c0,5.11,0,10.21,0,15.32,0,3-1.46,4.46-4,4.47s-3.79-1.34-3.8-4.53q0-16.41,0-32.82v-3h-10.6a3.13,3.13,0,0,0-.31.86c0,12.22-.12,24.44.12,36.65.11,5.36,3.54,9.14,8.78,10.57a21.86,21.86,0,0,0,12.39-.19c5-1.53,8-5.07,8.18-10.13.36-12,.26-24.06.25-36.09,0-.6-.89-1.69-1.4-1.72C495.8,717.13,492.71,717.21,489.3,717.21Zm40.4,55.61H516V734.75H505.28v47.3H529.7Z" transform="translate(-181.51 -181.51)"/><path class="cls-1" d="M489.3,717.21c3.41,0,6.5-.08,9.57.08.51,0,1.4,1.12,1.4,1.72,0,12,.11,24.06-.25,36.09-.16,5.06-3.17,8.6-8.18,10.13a21.86,21.86,0,0,1-12.39.19c-5.24-1.43-8.67-5.21-8.78-10.57-.24-12.21-.11-24.43-.12-36.65a3.13,3.13,0,0,1,.31-.86h10.6v3q0,16.41,0,32.82c0,3.19,1.17,4.53,3.8,4.53s4-1.49,4-4.47c.08-5.11,0-10.21,0-15.32Z" transform="translate(-181.51 -181.51)"/><path class="cls-1" d="M529.7,772.82v9.23H505.28v-47.3H516v38.07Z" transform="translate(-181.51 -181.51)"/></g></svg>
