<svg id="FSRI_WORDMARK" xmlns="http://www.w3.org/2000/svg" viewBox="0 0 136.9 136.89"><defs><style>.cls-1{fill:#fff;}.cls-2{fill:#c02032;}</style></defs><path d="M500,693.37a56,56,0,0,1,28,7.41c1.06.6,2.1,1.25,3.11,1.92A56.44,56.44,0,1,1,471,701.4c.77-.48,1.57-.93,2.36-1.35A56.34,56.34,0,0,1,500,693.37m0-12a68.75,68.75,0,0,0-32.35,8.1c-1.09.59-2.06,1.14-3,1.7a68.45,68.45,0,1,0,73,1.52c-1.34-.89-2.58-1.65-3.8-2.35a68.25,68.25,0,0,0-33.89-9Z" transform="translate(-431.55 -681.37)"/><path class="cls-1" d="M500,691.31c-31.92,0-58.13,25.88-58.57,57.11-.47,33.12,25.88,59.78,58,59.9,32.43.12,59.11-26,59.13-57.7C558.58,717.44,532.83,691.35,500,691.31Z" transform="translate(-431.55 -681.37)"/><path class="cls-2" d="M450.28,749.8A49.8,49.8,0,1,1,500,799.63,49.88,49.88,0,0,1,450.28,749.8Z" transform="translate(-431.55 -681.37)"/><polygon class="cls-1" points="41.2 60.91 41.2 66.33 49 66.33 49 71.06 41.2 71.06 41.2 80.92 35.44 80.92 35.44 55.99 49.55 55.99 49.55 60.91 41.2 60.91"/><path class="cls-1" d="M498,742.42a13.35,13.35,0,0,0-4.39-.74c-2.36,0-3.44.92-3.44,2.33,0,3.91,10.27,2.55,10.27,10.71,0,4.69-3.54,8-9.93,8a25.36,25.36,0,0,1-5.91-.66l.52-5.47a15.74,15.74,0,0,0,5.68,1.11c2,0,3.47-.7,3.47-2.4,0-4.14-10.15-2.55-10.15-10.75,0-4.58,3.62-7.64,9.86-7.64a21.59,21.59,0,0,1,4.54.48Z" transform="translate(-431.55 -681.37)"/><path class="cls-1" d="M517,762.29l-5.42-9.57h-1v9.57h-5.76V737.36s3.55-.19,7.87-.19c6,0,9.53,2.19,9.53,7.5a6.9,6.9,0,0,1-5,7s1,1.44,1.81,2.74l4.92,7.9Zm-6.39-13.85s.82,0,1.63,0c2.44,0,3.95-1.18,3.95-3.33,0-1.92-1.15-3.25-3.8-3.25-.85,0-1.78.08-1.78.08Z" transform="translate(-431.55 -681.37)"/><rect class="cls-1" x="95.86" y="55.99" width="5.76" height="24.93"/></svg>
