<?xml version="1.0" encoding="UTF-8"?>
<svg id="Layer_1" data-name="Layer 1" xmlns="http://www.w3.org/2000/svg" viewBox="0 0 1867.09 663.85">
  <defs>
    <style>
      .cls-1 {
        fill: #fff;
      }

      .cls-1, .cls-2 {
        stroke: #000;
        stroke-miterlimit: 10;
      }

      .cls-3 {
        fill: none;
      }

      .cls-3, .cls-4 {
        stroke-width: 0px;
      }

      .cls-2 {
        fill: #f2f2f2;
      }

      .cls-4 {
        fill: #c02032;
      }
    </style>
  </defs>
  <g>
    <polygon class="cls-4" points="230.5 313 235 304 145 303 181 232 370 232 298 375 128 376 64 501 0 501 91 313 230.5 313"/>
    <circle class="cls-4" cx="200.5" cy="263.5" r="12.5"/>
  </g>
  <g>
    <polygon class="cls-4" points="203.06 446.59 198.56 455.59 288.56 456.59 252.56 527.59 63.56 527.59 135.56 384.59 305.56 383.59 369.56 258.59 433.56 258.59 342.56 446.59 203.06 446.59"/>
    <circle class="cls-1" cx="233.06" cy="496.09" r="12.5"/>
  </g>
  <g>
    <polygon class="cls-3" points="230.5 313 235 304 145 303 181 232 370 232 298 375 128 376 64 501 0 501 91 313 230.5 313"/>
    <circle class="cls-2" cx="200.5" cy="263.5" r="12.5"/>
  </g>
  <g>
    <path class="cls-4" d="M576.52,528.5l-5.13-57.98h-78.81l-29.16,57.98h-73.31l149.18-294.19h95.48l33.91,294.19h-92.16ZM520.68,406.3h47.6l-6.87-85.34-40.72,85.34Z"/>
    <path class="cls-4" d="M916.36,456.3l-14.32,72.2h-206.26l58.36-294.19h90.31l-44.03,221.99h115.95Z"/>
    <path class="cls-4" d="M1082.17,234.31l-58.36,294.19h-90.31l58.36-294.19h90.31Z"/>
    <path class="cls-4" d="M1259.24,416.21l81.56,4.96c-11.03,36.07-29.85,63.73-56.44,82.98-26.59,19.26-56.49,28.88-89.68,28.88-39.95,0-69.58-13.22-88.91-39.66-19.33-26.44-24.37-62.93-15.14-109.49,9.15-46.12,28.17-83.33,57.06-111.64,28.89-28.31,64.17-42.46,105.84-42.46,38.94,0,66.72,10.78,83.36,32.33,16.63,21.55,22.78,50.15,18.44,85.78l-85.17,4.53c3.9-19.68,2.95-33.91-2.85-42.67-5.81-8.76-13.81-13.15-24.01-13.15-28.45,0-48.35,28.59-59.69,85.78-6.36,32.04-6.98,53.81-1.85,65.31,5.12,11.5,14.36,17.24,27.72,17.24,23.85,0,40.43-16.24,49.75-48.71Z"/>
    <path class="cls-4" d="M1509.76,528.5l-5.13-57.98h-78.81l-29.16,57.98h-73.31l149.18-294.19h95.48l33.91,294.19h-92.16ZM1453.91,406.3h47.6l-6.87-85.34-40.72,85.34Z"/>
    <path class="cls-4" d="M1777.49,304.78l-44.38,223.72h-85.56l44.38-223.72h-60.99l13.98-70.48h207.55l-13.98,70.48h-60.99Z"/>
  </g>
</svg>
