<svg id="FSRI_WORDMARK" xmlns="http://www.w3.org/2000/svg" viewBox="0 0 66.18 25.82"><defs><style>.cls-1{fill:#c02032;}</style></defs><polygon class="cls-1" points="5.76 5.35 5.76 10.79 13.55 10.79 13.55 15.51 5.76 15.51 5.76 25.37 0 25.37 0 0.44 14.11 0.44 14.11 5.35 5.76 5.35"/><path class="cls-1" d="M498,742.42a13.35,13.35,0,0,0-4.39-.74c-2.36,0-3.44.92-3.44,2.33,0,3.91,10.27,2.55,10.27,10.71,0,4.69-3.54,8-9.93,8a25.36,25.36,0,0,1-5.91-.66l.52-5.47a15.74,15.74,0,0,0,5.68,1.11c2,0,3.47-.7,3.47-2.4,0-4.14-10.15-2.55-10.15-10.75,0-4.58,3.62-7.64,9.86-7.64a21.59,21.59,0,0,1,4.54.48Z" transform="translate(-466.99 -736.92)"/><path class="cls-1" d="M517,762.29l-5.42-9.57h-1v9.57h-5.76V737.36s3.55-.19,7.87-.19c6,0,9.53,2.19,9.53,7.5a6.9,6.9,0,0,1-5,7s1,1.44,1.81,2.74l4.92,7.9Zm-6.39-13.85s.82,0,1.63,0c2.44,0,3.95-1.18,3.95-3.33,0-1.92-1.15-3.25-3.8-3.25-.85,0-1.78.08-1.78.08Z" transform="translate(-466.99 -736.92)"/><rect class="cls-1" x="60.42" y="0.44" width="5.76" height="24.93"/></svg>
